<mxfile host="app.diagrams.net" agent="Mozilla/5.0 (Macintosh; Intel Mac OS X 10_15_7) AppleWebKit/537.36 (KHTML, like Gecko) Chrome/137.0.0.0 Safari/537.36" version="26.0.16">
  <diagram name="Page-1" id="eqVlvG9p1LPLrAwsxu61">
    <mxGraphModel dx="2400" dy="822" grid="1" gridSize="10" guides="1" tooltips="1" connect="1" arrows="1" fold="1" page="1" pageScale="1" pageWidth="850" pageHeight="1100" math="0" shadow="0">
      <root>
        <mxCell id="0" />
        <mxCell id="1" parent="0" />
        <mxCell id="MShcyyQQMbEqfYweoygw-69" style="edgeStyle=orthogonalEdgeStyle;rounded=0;orthogonalLoop=1;jettySize=auto;html=1;" edge="1" parent="1" source="_Whus41_gqhwU1JSvbRv-2" target="_Whus41_gqhwU1JSvbRv-3">
          <mxGeometry relative="1" as="geometry" />
        </mxCell>
        <mxCell id="_Whus41_gqhwU1JSvbRv-2" value="FrontEnd User App" style="whiteSpace=wrap;html=1;aspect=fixed;fillColor=#f5f5f5;strokeColor=#666666;fontColor=#333333;" vertex="1" parent="1">
          <mxGeometry x="-280" y="400" width="130" height="130" as="geometry" />
        </mxCell>
        <mxCell id="MShcyyQQMbEqfYweoygw-104" style="edgeStyle=entityRelationEdgeStyle;rounded=0;orthogonalLoop=1;jettySize=auto;html=1;" edge="1" parent="1" source="_Whus41_gqhwU1JSvbRv-3">
          <mxGeometry relative="1" as="geometry">
            <mxPoint x="210" y="465" as="targetPoint" />
          </mxGeometry>
        </mxCell>
        <mxCell id="_Whus41_gqhwU1JSvbRv-3" value="API Gateway" style="whiteSpace=wrap;html=1;aspect=fixed;fillColor=#f5f5f5;strokeColor=#666666;fontColor=#333333;" vertex="1" parent="1">
          <mxGeometry x="-60" y="395" width="140" height="140" as="geometry" />
        </mxCell>
        <mxCell id="MShcyyQQMbEqfYweoygw-15" style="edgeStyle=orthogonalEdgeStyle;rounded=0;orthogonalLoop=1;jettySize=auto;html=1;entryX=0.5;entryY=0;entryDx=0;entryDy=0;" edge="1" parent="1" source="_Whus41_gqhwU1JSvbRv-5" target="_Whus41_gqhwU1JSvbRv-2">
          <mxGeometry relative="1" as="geometry" />
        </mxCell>
        <mxCell id="MShcyyQQMbEqfYweoygw-18" style="edgeStyle=orthogonalEdgeStyle;rounded=0;orthogonalLoop=1;jettySize=auto;html=1;" edge="1" parent="1" source="_Whus41_gqhwU1JSvbRv-5" target="_Whus41_gqhwU1JSvbRv-2">
          <mxGeometry relative="1" as="geometry" />
        </mxCell>
        <mxCell id="_Whus41_gqhwU1JSvbRv-5" value="websocket-server" style="whiteSpace=wrap;html=1;aspect=fixed;fillColor=#f5f5f5;strokeColor=#666666;fontColor=#333333;" vertex="1" parent="1">
          <mxGeometry x="120" y="190" width="130" height="130" as="geometry" />
        </mxCell>
        <mxCell id="MShcyyQQMbEqfYweoygw-32" value="" style="html=1;shadow=0;dashed=0;align=center;verticalAlign=middle;shape=mxgraph.arrows2.twoWayArrow;dy=0.65;dx=22;" vertex="1" parent="1">
          <mxGeometry x="80" y="475" width="150" as="geometry" />
        </mxCell>
        <mxCell id="MShcyyQQMbEqfYweoygw-92" value="" style="group" vertex="1" connectable="0" parent="1">
          <mxGeometry x="-20" y="700" width="420" height="170" as="geometry" />
        </mxCell>
        <mxCell id="MShcyyQQMbEqfYweoygw-91" value="" style="rounded=1;whiteSpace=wrap;html=1;" vertex="1" parent="MShcyyQQMbEqfYweoygw-92">
          <mxGeometry width="420" height="170" as="geometry" />
        </mxCell>
        <mxCell id="MShcyyQQMbEqfYweoygw-53" value="Postgresql Database" style="whiteSpace=wrap;html=1;aspect=fixed;fillColor=#f5f5f5;strokeColor=#666666;fontColor=#333333;" vertex="1" parent="MShcyyQQMbEqfYweoygw-92">
          <mxGeometry x="50" y="20" width="130" height="130" as="geometry" />
        </mxCell>
        <mxCell id="MShcyyQQMbEqfYweoygw-89" value="Redis" style="whiteSpace=wrap;html=1;aspect=fixed;fillColor=#f5f5f5;strokeColor=#666666;fontColor=#333333;" vertex="1" parent="MShcyyQQMbEqfYweoygw-92">
          <mxGeometry x="230" y="20" width="130" height="130" as="geometry" />
        </mxCell>
        <mxCell id="MShcyyQQMbEqfYweoygw-93" value="" style="group" vertex="1" connectable="0" parent="1">
          <mxGeometry x="570" y="710" width="420" height="170" as="geometry" />
        </mxCell>
        <mxCell id="MShcyyQQMbEqfYweoygw-94" value="" style="rounded=1;whiteSpace=wrap;html=1;" vertex="1" parent="MShcyyQQMbEqfYweoygw-93">
          <mxGeometry width="250" height="170" as="geometry" />
        </mxCell>
        <mxCell id="MShcyyQQMbEqfYweoygw-95" value="&lt;span style=&quot;color: rgb(0, 0, 0);&quot;&gt;RabbitMQ&lt;/span&gt;" style="whiteSpace=wrap;html=1;aspect=fixed;fillColor=#f5f5f5;strokeColor=#666666;fontColor=#333333;" vertex="1" parent="MShcyyQQMbEqfYweoygw-93">
          <mxGeometry x="50" y="20" width="130" height="130" as="geometry" />
        </mxCell>
        <mxCell id="MShcyyQQMbEqfYweoygw-103" value="Backend Services" style="group" vertex="1" connectable="0" parent="1">
          <mxGeometry x="215" y="370" width="370" height="190" as="geometry" />
        </mxCell>
        <mxCell id="MShcyyQQMbEqfYweoygw-111" style="rounded=0;orthogonalLoop=1;jettySize=auto;html=1;" edge="1" parent="MShcyyQQMbEqfYweoygw-103" source="MShcyyQQMbEqfYweoygw-102">
          <mxGeometry relative="1" as="geometry">
            <mxPoint x="40" y="329.9999999999998" as="targetPoint" />
          </mxGeometry>
        </mxCell>
        <mxCell id="MShcyyQQMbEqfYweoygw-102" value="" style="rounded=1;whiteSpace=wrap;html=1;" vertex="1" parent="MShcyyQQMbEqfYweoygw-103">
          <mxGeometry width="370" height="190" as="geometry" />
        </mxCell>
        <mxCell id="_Whus41_gqhwU1JSvbRv-6" value="Live Room Service" style="whiteSpace=wrap;html=1;aspect=fixed;fillColor=#f5f5f5;strokeColor=#666666;fontColor=#333333;" vertex="1" parent="MShcyyQQMbEqfYweoygw-103">
          <mxGeometry x="210" y="35" width="130" height="130" as="geometry" />
        </mxCell>
        <mxCell id="_Whus41_gqhwU1JSvbRv-7" value="Subscription Service" style="whiteSpace=wrap;html=1;aspect=fixed;fillColor=#f5f5f5;strokeColor=#666666;fontColor=#333333;" vertex="1" parent="MShcyyQQMbEqfYweoygw-103">
          <mxGeometry x="30" y="35" width="130" height="130" as="geometry" />
        </mxCell>
        <mxCell id="MShcyyQQMbEqfYweoygw-117" style="rounded=0;orthogonalLoop=1;jettySize=auto;html=1;entryX=0.304;entryY=-0.023;entryDx=0;entryDy=0;entryPerimeter=0;" edge="1" parent="1" target="MShcyyQQMbEqfYweoygw-94">
          <mxGeometry relative="1" as="geometry">
            <mxPoint x="657.5" y="695.7299999999998" as="targetPoint" />
            <mxPoint x="376" y="561" as="sourcePoint" />
          </mxGeometry>
        </mxCell>
        <mxCell id="MShcyyQQMbEqfYweoygw-139" value="&lt;b&gt;Database &amp;amp; Cache&lt;/b&gt;" style="text;html=1;align=center;verticalAlign=middle;whiteSpace=wrap;rounded=0;" vertex="1" parent="1">
          <mxGeometry x="100" y="670" width="150" height="30" as="geometry" />
        </mxCell>
        <mxCell id="MShcyyQQMbEqfYweoygw-140" style="edgeStyle=orthogonalEdgeStyle;rounded=0;orthogonalLoop=1;jettySize=auto;html=1;curved=1;" edge="1" parent="1" source="MShcyyQQMbEqfYweoygw-94" target="_Whus41_gqhwU1JSvbRv-5">
          <mxGeometry relative="1" as="geometry">
            <mxPoint x="360" y="290" as="targetPoint" />
            <Array as="points">
              <mxPoint x="720" y="255" />
            </Array>
          </mxGeometry>
        </mxCell>
        <mxCell id="MShcyyQQMbEqfYweoygw-142" value="&lt;b&gt;Message Broker&lt;/b&gt;" style="text;html=1;align=center;verticalAlign=middle;whiteSpace=wrap;rounded=0;" vertex="1" parent="1">
          <mxGeometry x="585" y="670" width="150" height="30" as="geometry" />
        </mxCell>
        <mxCell id="MShcyyQQMbEqfYweoygw-120" value="&lt;b&gt;Backend Services&lt;/b&gt;" style="text;html=1;align=center;verticalAlign=middle;whiteSpace=wrap;rounded=0;" vertex="1" parent="1">
          <mxGeometry x="310" y="339" width="150" height="30" as="geometry" />
        </mxCell>
        <mxCell id="MShcyyQQMbEqfYweoygw-144" style="edgeStyle=entityRelationEdgeStyle;rounded=0;orthogonalLoop=1;jettySize=auto;html=1;entryX=1;entryY=0.5;entryDx=0;entryDy=0;" edge="1" parent="1" source="MShcyyQQMbEqfYweoygw-102" target="_Whus41_gqhwU1JSvbRv-5">
          <mxGeometry relative="1" as="geometry" />
        </mxCell>
      </root>
    </mxGraphModel>
  </diagram>
</mxfile>
